<svg width="32" height="32" viewBox="0 0 32 32" fill="none" xmlns="http://www.w3.org/2000/svg">
  <!-- Background circle -->
  <circle cx="16" cy="16" r="15" fill="#1e40af" stroke="#3b82f6" stroke-width="2"/>
  
  <!-- Heart shape -->
  <path d="M16 8C14.5 6.5 12 6.5 10.5 8C9 9.5 9 12 10.5 13.5L16 19L21.5 13.5C23 12 23 9.5 21.5 8C20 6.5 17.5 6.5 16 8Z" fill="#ef4444"/>
  
  <!-- ECG line -->
  <path d="M8 22L10 20L12 22L14 18L16 22L18 20L20 22L22 18L24 22" stroke="#ffffff" stroke-width="2" stroke-linecap="round" stroke-linejoin="round"/>
  
  <!-- Network dots -->
  <circle cx="12" cy="26" r="1.5" fill="#ffffff"/>
  <circle cx="16" cy="26" r="1.5" fill="#ffffff"/>
  <circle cx="20" cy="26" r="1.5" fill="#ffffff"/>
</svg>
